<?xml version="1.0" encoding="utf-8"?>
<!-- Generator: Adobe Illustrator 22.0.0, SVG Export Plug-In . SVG Version: 6.00 Build 0)  -->
<svg version="1.1" id="Capa_1" xmlns="http://www.w3.org/2000/svg" xmlns:xlink="http://www.w3.org/1999/xlink" x="0px" y="0px"
	 viewBox="0 0 1024 1024" style="enable-background:new 0 0 1024 1024;" xml:space="preserve">
<style type="text/css">
	.st0{fill:#0D1114;}
</style>
<g>
	<g>
		<g>
			<path class="st0" d="M87.2,460.1c45.7,0,71.1,40.7,71.1,66.7c0,2-0.6,3.4-2.8,4.3L55.1,575c7.9,19.1,25,37.2,51.9,37.2
				c14.6,0,31.9-8,43.9-25.5c0.7-1.1,2.1-1.5,3-1.5c2.1,0,2.7,0.3,13.7,6.7c1.1,0.6,1.5,1.6,1.5,2.7c0,1.9-1.2,4.2-2.2,6
				c-12.9,24.1-34.3,40.3-69.3,40.3C40.4,640.9,5,598.8,5,548.8C5,484.7,46.5,460.1,87.2,460.1 M50.9,553.4l55.6-28
				c0-22-11.9-38-27.8-38c-19,0-31,17.2-31,39.6C47.7,533.8,48.1,545.2,50.9,553.4 M87.2,456.1c-23,0-44,7.6-59.1,21.4
				c-8.5,7.8-15.2,17.6-19.7,29C3.5,518.7,1,533,1,548.8c0,26,9.2,50,26,67.6c8.6,9,18.8,16,30.5,20.9c12.2,5.1,25.7,7.7,40.1,7.7
				c33.3,0,57.7-14.3,72.8-42.4c1.3-2.3,2.7-5.1,2.7-7.9c0-2.7-1.3-4.9-3.5-6.2c-11.2-6.5-12.4-7.2-15.7-7.2c-1.9,0-4.7,0.9-6.3,3.3
				c-12,17.5-28.8,23.7-40.6,23.7c-11.5,0-21.8-3.6-30.6-10.6c-6.5-5.2-12-12.3-16-20.6l96.7-42.3c3.5-1.4,5.2-4.1,5.2-8
				c0-14.9-7.4-32.4-19.4-45.8C128.4,465,108.7,456.1,87.2,456.1L87.2,456.1z M53.5,547.6c-1.2-5.4-1.8-12.4-1.8-20.6
				c0-10.2,2.7-19.3,7.6-25.8c4.9-6.4,11.6-9.8,19.4-9.8c6.4,0,12.3,3.2,16.6,9.1c4.2,5.8,6.7,13.7,7.1,22.4L53.5,547.6L53.5,547.6z
				"/>
		</g>
		<g>
			<path class="st0" d="M246.1,405.1c0.4,0,0.8,0,0.9,0.6v54.4h46.2c3.4,0,5.2,1.8,5.2,5.2v14.8c0,3.4-1.8,5.2-5.2,5.2h-46.1V588
				c0,17.9,6.3,23.4,14.3,23.4c7.9,0,17.5-5.4,24.6-9.8l0.4-0.3c1.1-0.7,2.1-1,3.1-1c1.6,0,3,0.9,4.1,2.7l5.6,8.8c0.7,1,1,2.1,1,3
				c0,1.6-0.9,2.9-2.7,4l-10.4,6.5c-12.3,7.7-31.3,15.7-48.4,15.7c-21.4,0-40.1-12.4-40.1-53.1v-64c0-18.5,0-43-25.1-43
				c-3.4,0-5.2-1.8-5.2-5.2v-10.4c0-3.4,1.8-5.2,5.2-5.2h25.1v-19.4c0-2.8,0.7-5,3.1-6.3c10-5.5,28.3-16.4,42.4-28.5
				c0.5-0.4,1-0.8,1.5-0.8H246.1 M246.1,401.1h-0.5c-1.9,0-3.2,1-4,1.7l-0.1,0l-0.1,0c-14.9,12.8-34.1,23.9-41.7,28
				c-3.4,1.9-5.2,5.2-5.2,9.8v15.4h-21.1c-5.6,0-9.2,3.6-9.2,9.2v10.4c0,5.6,3.6,9.2,9.2,9.2c9.4,0,15.2,3.8,18.2,12
				c2.9,7.8,2.9,18,2.9,27v64c0,19.9,4.4,34.8,13,44.5c7.5,8.4,18,12.6,31.1,12.6c18,0,37.9-8.4,50.5-16.3l10.4-6.5
				c3.8-2.3,4.6-5.3,4.6-7.4c0-1.8-0.6-3.6-1.7-5.2l-5.5-8.7c-1.8-3-4.5-4.6-7.5-4.6c-1.8,0-3.5,0.5-5.2,1.6l-0.1,0.1l-0.1,0.1
				l-0.3,0.2c-4.2,2.6-14.8,9.1-22.3,9.1c-2.8,0-10.3,0-10.3-19.4v-98.7h42.1c5.6,0,9.2-3.6,9.2-9.2v-14.8c0-5.6-3.6-9.2-9.2-9.2
				H251v-50.4v-0.3l-0.1-0.3C250.6,403.2,249.2,401.1,246.1,401.1L246.1,401.1z"/>
		</g>
		<g>
			<path class="st0" d="M393.6,460.1c45.7,0,71.1,40.7,71.1,66.7c0,2-0.6,3.4-2.8,4.3L361.6,575c7.9,19.1,25,37.2,51.9,37.2
				c14.6,0,31.9-8,43.9-25.5c0.7-1.1,2.1-1.5,3-1.5c2.1,0,2.7,0.3,13.7,6.7c1.1,0.6,1.5,1.6,1.5,2.7c0,1.9-1.2,4.2-2.2,6
				c-12.9,24.1-34.3,40.3-69.3,40.3c-57.3,0-92.7-42.1-92.7-92.1C311.4,484.7,352.9,460.1,393.6,460.1 M357.4,553.4l55.6-28
				c0-22-11.9-38-27.8-38c-19,0-31,17.2-31,39.6C354.2,533.8,354.6,545.2,357.4,553.4 M393.6,456.1c-23,0-44,7.6-59.1,21.4
				c-8.5,7.8-15.2,17.6-19.7,29c-4.9,12.3-7.4,26.6-7.4,42.4c0,26,9.2,50,26,67.6c17.8,18.7,42.3,28.5,70.7,28.5
				c33.3,0,57.7-14.3,72.8-42.4c1.3-2.3,2.7-5.1,2.7-7.9c0-2.7-1.3-4.9-3.5-6.2c-11.2-6.5-12.4-7.2-15.7-7.2c-1.9,0-4.7,0.9-6.3,3.3
				c-12,17.5-28.8,23.7-40.6,23.7c-11.5,0-21.8-3.6-30.6-10.6c-6.5-5.2-12-12.3-16-20.6l96.6-42.3c3.5-1.4,5.2-4.1,5.2-8
				c0-14.9-7.4-32.4-19.4-45.8C434.8,465,415.1,456.1,393.6,456.1L393.6,456.1z M360,547.6c-1.2-5.4-1.8-12.4-1.8-20.6
				c0-10.2,2.7-19.3,7.6-25.8c4.9-6.4,11.6-9.8,19.4-9.8c6.4,0,12.3,3.2,16.6,9.1c4.2,5.8,6.7,13.7,7.1,22.4L360,547.6L360,547.6z"
				/>
		</g>
		<g>
			<path class="st0" d="M747.7,460.1c45.7,0,71.1,40.7,71.1,66.7c0,2-0.6,3.4-2.8,4.3L715.7,575c7.9,19.1,25,37.2,51.9,37.2
				c14.3,0,31.1-7.7,43.1-24.4c0.3-0.4,0.5-0.8,0.8-1.1c0.7-1.1,2.1-1.5,3-1.5c2.1,0,2.7,0.3,13.7,6.7c1.1,0.6,1.5,1.6,1.5,2.7
				c0,1.9-1.2,4.2-2.2,6c-12.9,24.1-34.3,40.3-69.3,40.3c-57.3,0-92.7-42.1-92.7-92.1C665.5,484.7,707,460.1,747.7,460.1
				 M711.5,553.4l55.6-28c0-22-11.9-38-27.8-38c-19,0-31,17.2-31,39.6C708.3,533.8,708.7,545.2,711.5,553.4 M747.7,456.1
				c-23,0-44,7.6-59.1,21.4c-8.5,7.8-15.2,17.6-19.7,29c-4.9,12.3-7.4,26.6-7.4,42.4c0,26,9.2,50,26,67.6
				c17.8,18.7,42.3,28.5,70.7,28.5c33.2,0,57.7-14.3,72.8-42.4c1.3-2.3,2.7-5.1,2.7-7.9c0-2.7-1.3-4.9-3.5-6.2
				c-11.2-6.5-12.4-7.2-15.7-7.2c-1.9,0-4.5,0.8-6.1,3c-0.3,0.4-0.5,0.7-0.7,1c-0.1,0.1-0.1,0.2-0.2,0.2l0,0l0,0
				c-10.2,14.2-25.1,22.7-39.9,22.7c-11.5,0-21.8-3.6-30.6-10.6c-6.5-5.2-12-12.3-16-20.6l96.6-42.3c3.5-1.4,5.2-4.1,5.2-8
				c0-14.9-7.4-32.4-19.4-45.8C788.9,465,769.2,456.1,747.7,456.1L747.7,456.1z M714.1,547.6c-1.2-5.4-1.8-12.4-1.8-20.6
				c0-10.2,2.7-19.3,7.6-25.8c4.9-6.4,11.6-9.8,19.4-9.8c6.4,0,12.3,3.2,16.6,9.1c4.2,5.8,6.7,13.7,7.1,22.4L714.1,547.6
				L714.1,547.6z"/>
		</g>
		<g>
			<path class="st0" d="M928.2,459.7c34.3,0,67.5,20.4,82.7,54.6c5.5,12.4,8.1,25.2,8.1,37.9c0,34.3-19.2,66.7-51.8,81.2
				c-11.4,5.1-23.3,7.5-35,7.5c-34.3,0-67.5-20.5-82.7-54.7c-5.4-12.3-8-25.2-8-37.8c0-34.3,19-66.7,51.6-81.3
				C904.6,462.1,916.4,459.7,928.2,459.7 M943.1,613.3c4.5,0,9.1-1,13.8-3.1c15-6.7,20.8-20.4,20.8-36.4c0-12.8-3.8-27.1-9.7-40.3
				c-10.9-24.5-29.4-46.1-50.7-46.1c-4.5,0-9.1,1-13.8,3.1c-14.9,6.6-20.8,20.4-20.8,36.4c0,12.8,3.8,27.1,9.7,40.3
				C903.3,591.7,921.8,613.3,943.1,613.3 M928.2,455.7c-12.5,0-24.9,2.6-36.7,7.7c-16.5,7.4-30.3,19.4-39.8,34.8
				c-9.3,14.9-14.2,32.3-14.2,50.1c0,13.5,2.8,26.8,8.3,39.4c15.4,34.7,49.3,57.1,86.4,57.1c12.7,0,25-2.6,36.6-7.8
				c16.5-7.3,30.3-19.3,39.9-34.7c9.3-15,14.3-32.3,14.3-50.1c0-13.6-2.8-26.9-8.4-39.5C999.2,478.1,965.3,455.7,928.2,455.7
				L928.2,455.7z M943.1,609.3c-20.3,0-37.6-22.6-47-43.7c-6-13.5-9.4-27.2-9.4-38.7c0-11.2,3.2-26,18.4-32.7
				c4.1-1.8,8.2-2.8,12.2-2.8c20.3,0,37.6,22.6,47,43.7c6,13.5,9.4,27.2,9.4,38.7c0,16.3-6.2,27.3-18.4,32.7
				C951.2,608.4,947.1,609.3,943.1,609.3L943.1,609.3z"/>
		</g>
		<g>
			<path class="st0" d="M561.7,460.3c0.4,0,0.5,0.1,0.5,0.6l0,36c6.6-22.6,31.2-36.6,55.7-36.6c21.6,0,39,12,39,35.6
				c0,10.4-0.7,18.5-9.1,22l-32.3,13.3c-1.2,0.5-2.2,0.7-3.1,0.7c-2.1,0-3.2-1.4-3.2-3.3c0-0.9,0.2-1.9,0.7-3
				c2.7-6.6,3.1-12.6,3.1-17.3c0-12.5-6.8-17.9-16.3-17.9c-15.8,0-29.5,17.3-34.7,29.9v67.1c0,18.8,8.5,32.9,25.4,32.9h0.6
				c3.4,0,5.2,1.8,5.2,5.2v10.4c0,3.4-1.8,5.2-5.2,5.2H487.7c-3.4,0-5.2-1.8-5.2-5.2v-10.4c0-3.4,1.8-5.2,5.2-5.2h0.8
				c16.9,0,25.1-14.1,25.1-32.9V544c0-18.5-1.3-41.1-20.4-43.2c-3.4-0.4-4.2-2.1-4-4.5v-11.7c0-2.9,1.6-4,5-4.6
				c32.3-7.1,42.3-11.2,62.2-18.2c0.5-0.4,4-1.5,4.5-1.5H561.7 M561.7,456.3h-0.8c-1.1,0-4.2,0.9-6.1,1.8c-2.1,0.8-4.2,1.5-6.1,2.2
				c-16.2,5.8-26.9,9.6-55.3,15.8c-2.1,0.4-8.2,1.5-8.2,8.5v11.6c-0.3,4.8,2.5,8,7.5,8.6c14,1.5,16.9,16.8,16.9,39.2v43.4
				c0,8.8-1.9,16.1-5.5,21.2c-3.6,5.1-8.9,7.7-15.6,7.7h-0.8c-5.6,0-9.2,3.6-9.2,9.2v10.4c0,5.6,3.6,9.2,9.2,9.2H588
				c5.6,0,9.2-3.6,9.2-9.2v-10.4c0-5.6-3.6-9.2-9.2-9.2h-0.6c-19.9,0-21.4-22.1-21.4-28.9v-66.3c4.9-11.3,17.4-26.7,30.7-26.7
				c8.3,0,12.3,4.5,12.3,13.9c0,4.1-0.3,9.7-2.8,15.7c-0.7,1.5-1,3.1-1,4.6c0,4.2,3,7.3,7.2,7.3c1.5,0,3-0.3,4.6-1l32.3-13.3
				c11.6-4.8,11.6-16.9,11.6-25.7c0-12.4-4.4-22.6-12.8-29.7c-7.7-6.5-18.1-9.9-30.2-9.9c-13,0-26,3.7-36.7,10.4
				c-6,3.8-11.1,8.4-15,13.5v-19.4C566.2,458.2,564.3,456.3,561.7,456.3L561.7,456.3z"/>
		</g>
		<g>
			<path class="st0" d="M416.9,383c5.3,0,11.5,1.7,15.5,4.6c7.2,5.2,10.6,17.3-3.1,31.4c-13.9,14.3-26.6,19.4-33,22.4
				c-4.1,1.9-11.8,3.8-18.2,3.8c-3.4,0-6.5-0.5-8.5-1.9c-5.7-3.9,5.1-14.2,5.1-14.2c2.3-2.7,12.6-11.3,18.6-19.3
				c9.1-12.5,12-19.9,14.1-23.2C409,384.1,412.7,383,416.9,383 M416.9,379c-6.1,0-10.7,2-12.9,5.5c-0.7,1-1.3,2.3-2.2,4
				c-2.1,4.1-5.3,10.2-11.7,19c-3.9,5.1-9.9,10.8-13.8,14.5c-2.1,1.9-3.6,3.4-4.5,4.4c-0.5,0.5-2.2,2.2-3.8,4.3
				c-3,3.9-4.3,7.2-4,10.2c0.2,2.3,1.4,4.4,3.4,5.7c2.6,1.7,6.2,2.6,10.8,2.6c7.1,0,15.4-2.1,19.9-4.2c0.6-0.3,1.1-0.5,1.7-0.8
				c6.7-3.1,19.2-8.8,32.5-22.4c9.5-9.8,10.9-18.2,10.4-23.5c-0.5-5.6-3.4-10.7-7.9-13.9C430.2,381.1,423.2,379,416.9,379L416.9,379
				z"/>
		</g>
	</g>
</g>
</svg>
