<svg xmlns="http://www.w3.org/2000/svg" viewBox="0 0 1024 1024">
  <path d="M87.2 460.1c45.7 0 71.1 40.7 71.1 66.7 0 2-.6 3.4-2.8 4.3L55.1 575c7.9 19.1 25 37.2 51.9 37.2 14.6 0 31.9-8 43.9-25.5.7-1.1 2.1-1.5 3-1.5 2.1 0 2.7.3 13.7 6.7 1.1.6 1.5 1.6 1.5 2.7 0 1.9-1.2 4.2-2.2 6-12.9 24.1-34.3 40.3-69.3 40.3-57.2 0-92.6-42.1-92.6-92.1 0-64.1 41.5-88.7 82.2-88.7m-36.3 93.3l55.6-28c0-22-11.9-38-27.8-38-19 0-31 17.2-31 39.6 0 6.8.4 18.2 3.2 26.4m36.3-97.3c-23 0-44 7.6-59.1 21.4-8.5 7.8-15.2 17.6-19.7 29C3.5 518.7 1 533 1 548.8c0 26 9.2 50 26 67.6 8.6 9 18.8 16 30.5 20.9 12.2 5.1 25.7 7.7 40.1 7.7 33.3 0 57.7-14.3 72.8-42.4 1.3-2.3 2.7-5.1 2.7-7.9 0-2.7-1.3-4.9-3.5-6.2-11.2-6.5-12.4-7.2-15.7-7.2-1.9 0-4.7.9-6.3 3.3-12 17.5-28.8 23.7-40.6 23.7-11.5 0-21.8-3.6-30.6-10.6-6.5-5.2-12-12.3-16-20.6l96.7-42.3c3.5-1.4 5.2-4.1 5.2-8 0-14.9-7.4-32.4-19.4-45.8-14.5-16-34.2-24.9-55.7-24.9zm-33.7 91.5c-1.2-5.4-1.8-12.4-1.8-20.6 0-10.2 2.7-19.3 7.6-25.8 4.9-6.4 11.6-9.8 19.4-9.8 6.4 0 12.3 3.2 16.6 9.1 4.2 5.8 6.7 13.7 7.1 22.4l-48.9 24.7zm192.6-142.5c.4 0 .8 0 .9.6v54.4h46.2c3.4 0 5.2 1.8 5.2 5.2v14.8c0 3.4-1.8 5.2-5.2 5.2h-46.1V588c0 17.9 6.3 23.4 14.3 23.4 7.9 0 17.5-5.4 24.6-9.8l.4-.3c1.1-.7 2.1-1 3.1-1 1.6 0 3 .9 4.1 2.7l5.6 8.8c.7 1 1 2.1 1 3 0 1.6-.9 2.9-2.7 4l-10.4 6.5c-12.3 7.7-31.3 15.7-48.4 15.7-21.4 0-40.1-12.4-40.1-53.1v-64c0-18.5 0-43-25.1-43-3.4 0-5.2-1.8-5.2-5.2v-10.4c0-3.4 1.8-5.2 5.2-5.2h25.1v-19.4c0-2.8.7-5 3.1-6.3 10-5.5 28.3-16.4 42.4-28.5.5-.4 1-.8 1.5-.8h.5m0-4h-.5c-1.9 0-3.2 1-4 1.7h-.2c-14.9 12.8-34.1 23.9-41.7 28-3.4 1.9-5.2 5.2-5.2 9.8V456h-21.1c-5.6 0-9.2 3.6-9.2 9.2v10.4c0 5.6 3.6 9.2 9.2 9.2 9.4 0 15.2 3.8 18.2 12 2.9 7.8 2.9 18 2.9 27v64c0 19.9 4.4 34.8 13 44.5 7.5 8.4 18 12.6 31.1 12.6 18 0 37.9-8.4 50.5-16.3l10.4-6.5c3.8-2.3 4.6-5.3 4.6-7.4 0-1.8-.6-3.6-1.7-5.2l-5.5-8.7c-1.8-3-4.5-4.6-7.5-4.6-1.8 0-3.5.5-5.2 1.6l-.1.1-.1.1-.3.2c-4.2 2.6-14.8 9.1-22.3 9.1-2.8 0-10.3 0-10.3-19.4v-98.7h42.1c5.6 0 9.2-3.6 9.2-9.2v-14.8c0-5.6-3.6-9.2-9.2-9.2H251v-50.7l-.1-.3c-.3-1.8-1.7-3.9-4.8-3.9zm147.5 59c45.7 0 71.1 40.7 71.1 66.7 0 2-.6 3.4-2.8 4.3L361.6 575c7.9 19.1 25 37.2 51.9 37.2 14.6 0 31.9-8 43.9-25.5.7-1.1 2.1-1.5 3-1.5 2.1 0 2.7.3 13.7 6.7 1.1.6 1.5 1.6 1.5 2.7 0 1.9-1.2 4.2-2.2 6-12.9 24.1-34.3 40.3-69.3 40.3-57.3 0-92.7-42.1-92.7-92.1 0-64.1 41.5-88.7 82.2-88.7m-36.2 93.3l55.6-28c0-22-11.9-38-27.8-38-19 0-31 17.2-31 39.6 0 6.8.4 18.2 3.2 26.4m36.2-97.3c-23 0-44 7.6-59.1 21.4-8.5 7.8-15.2 17.6-19.7 29-4.9 12.3-7.4 26.6-7.4 42.4 0 26 9.2 50 26 67.6 17.8 18.7 42.3 28.5 70.7 28.5 33.3 0 57.7-14.3 72.8-42.4 1.3-2.3 2.7-5.1 2.7-7.9 0-2.7-1.3-4.9-3.5-6.2-11.2-6.5-12.4-7.2-15.7-7.2-1.9 0-4.7.9-6.3 3.3-12 17.5-28.8 23.7-40.6 23.7-11.5 0-21.8-3.6-30.6-10.6-6.5-5.2-12-12.3-16-20.6l96.6-42.3c3.5-1.4 5.2-4.1 5.2-8 0-14.9-7.4-32.4-19.4-45.8-14.5-16-34.2-24.9-55.7-24.9zM360 547.6c-1.2-5.4-1.8-12.4-1.8-20.6 0-10.2 2.7-19.3 7.6-25.8 4.9-6.4 11.6-9.8 19.4-9.8 6.4 0 12.3 3.2 16.6 9.1 4.2 5.8 6.7 13.7 7.1 22.4L360 547.6zm387.7-87.5c45.7 0 71.1 40.7 71.1 66.7 0 2-.6 3.4-2.8 4.3L715.7 575c7.9 19.1 25 37.2 51.9 37.2 14.3 0 31.1-7.7 43.1-24.4.3-.4.5-.8.8-1.1.7-1.1 2.1-1.5 3-1.5 2.1 0 2.7.3 13.7 6.7 1.1.6 1.5 1.6 1.5 2.7 0 1.9-1.2 4.2-2.2 6-12.9 24.1-34.3 40.3-69.3 40.3-57.3 0-92.7-42.1-92.7-92.1 0-64.1 41.5-88.7 82.2-88.7m-36.2 93.3l55.6-28c0-22-11.9-38-27.8-38-19 0-31 17.2-31 39.6 0 6.8.4 18.2 3.2 26.4m36.2-97.3c-23 0-44 7.6-59.1 21.4-8.5 7.8-15.2 17.6-19.7 29-4.9 12.3-7.4 26.6-7.4 42.4 0 26 9.2 50 26 67.6 17.8 18.7 42.3 28.5 70.7 28.5 33.2 0 57.7-14.3 72.8-42.4 1.3-2.3 2.7-5.1 2.7-7.9 0-2.7-1.3-4.9-3.5-6.2-11.2-6.5-12.4-7.2-15.7-7.2-1.9 0-4.5.8-6.1 3-.3.4-.5.7-.7 1-.1.1-.1.2-.2.2-10.2 14.2-25.1 22.7-39.9 22.7-11.5 0-21.8-3.6-30.6-10.6-6.5-5.2-12-12.3-16-20.6l96.6-42.3c3.5-1.4 5.2-4.1 5.2-8 0-14.9-7.4-32.4-19.4-45.8-14.5-15.9-34.2-24.8-55.7-24.8zm-33.6 91.5c-1.2-5.4-1.8-12.4-1.8-20.6 0-10.2 2.7-19.3 7.6-25.8 4.9-6.4 11.6-9.8 19.4-9.8 6.4 0 12.3 3.2 16.6 9.1 4.2 5.8 6.7 13.7 7.1 22.4l-48.9 24.7zm214.1-87.9c34.3 0 67.5 20.4 82.7 54.6 5.5 12.4 8.1 25.2 8.1 37.9 0 34.3-19.2 66.7-51.8 81.2-11.4 5.1-23.3 7.5-35 7.5-34.3 0-67.5-20.5-82.7-54.7-5.4-12.3-8-25.2-8-37.8 0-34.3 19-66.7 51.6-81.3 11.5-5 23.3-7.4 35.1-7.4m14.9 153.6c4.5 0 9.1-1 13.8-3.1 15-6.7 20.8-20.4 20.8-36.4 0-12.8-3.8-27.1-9.7-40.3-10.9-24.5-29.4-46.1-50.7-46.1-4.5 0-9.1 1-13.8 3.1-14.9 6.6-20.8 20.4-20.8 36.4 0 12.8 3.8 27.1 9.7 40.3 10.9 24.5 29.4 46.1 50.7 46.1m-14.9-157.6c-12.5 0-24.9 2.6-36.7 7.7-16.5 7.4-30.3 19.4-39.8 34.8-9.3 14.9-14.2 32.3-14.2 50.1 0 13.5 2.8 26.8 8.3 39.4 15.4 34.7 49.3 57.1 86.4 57.1 12.7 0 25-2.6 36.6-7.8 16.5-7.3 30.3-19.3 39.9-34.7 9.3-15 14.3-32.3 14.3-50.1 0-13.6-2.8-26.9-8.4-39.5-15.4-34.6-49.3-57-86.4-57zm14.9 153.6c-20.3 0-37.6-22.6-47-43.7-6-13.5-9.4-27.2-9.4-38.7 0-11.2 3.2-26 18.4-32.7 4.1-1.8 8.2-2.8 12.2-2.8 20.3 0 37.6 22.6 47 43.7 6 13.5 9.4 27.2 9.4 38.7 0 16.3-6.2 27.3-18.4 32.7-4.1 1.9-8.2 2.8-12.2 2.8zm-381.4-149c.4 0 .5.1.5.6v36c6.6-22.6 31.2-36.6 55.7-36.6 21.6 0 39 12 39 35.6 0 10.4-.7 18.5-9.1 22l-32.3 13.3c-1.2.5-2.2.7-3.1.7-2.1 0-3.2-1.4-3.2-3.3 0-.9.2-1.9.7-3 2.7-6.6 3.1-12.6 3.1-17.3 0-12.5-6.8-17.9-16.3-17.9-15.8 0-29.5 17.3-34.7 29.9v67.1c0 18.8 8.5 32.9 25.4 32.9h.6c3.4 0 5.2 1.8 5.2 5.2v10.4c0 3.4-1.8 5.2-5.2 5.2H487.7c-3.4 0-5.2-1.8-5.2-5.2v-10.4c0-3.4 1.8-5.2 5.2-5.2h.8c16.9 0 25.1-14.1 25.1-32.9V544c0-18.5-1.3-41.1-20.4-43.2-3.4-.4-4.2-2.1-4-4.5v-11.7c0-2.9 1.6-4 5-4.6 32.3-7.1 42.3-11.2 62.2-18.2.5-.4 4-1.5 4.5-1.5h.8m0-4h-.8c-1.1 0-4.2.9-6.1 1.8-2.1.8-4.2 1.5-6.1 2.2-16.2 5.8-26.9 9.6-55.3 15.8-2.1.4-8.2 1.5-8.2 8.5v11.6c-.3 4.8 2.5 8 7.5 8.6 14 1.5 16.9 16.8 16.9 39.2v43.4c0 8.8-1.9 16.1-5.5 21.2-3.6 5.1-8.9 7.7-15.6 7.7h-.8c-5.6 0-9.2 3.6-9.2 9.2v10.4c0 5.6 3.6 9.2 9.2 9.2H588c5.6 0 9.2-3.6 9.2-9.2v-10.4c0-5.6-3.6-9.2-9.2-9.2h-.6c-19.9 0-21.4-22.1-21.4-28.9v-66.3c4.9-11.3 17.4-26.7 30.7-26.7 8.3 0 12.3 4.5 12.3 13.9 0 4.1-.3 9.7-2.8 15.7-.7 1.5-1 3.1-1 4.6 0 4.2 3 7.3 7.2 7.3 1.5 0 3-.3 4.6-1l32.3-13.3c11.6-4.8 11.6-16.9 11.6-25.7 0-12.4-4.4-22.6-12.8-29.7-7.7-6.5-18.1-9.9-30.2-9.9-13 0-26 3.7-36.7 10.4-6 3.8-11.1 8.4-15 13.5v-19.4c0-2.6-1.9-4.5-4.5-4.5zM416.9 383c5.3 0 11.5 1.7 15.5 4.6 7.2 5.2 10.6 17.3-3.1 31.4-13.9 14.3-26.6 19.4-33 22.4-4.1 1.9-11.8 3.8-18.2 3.8-3.4 0-6.5-.5-8.5-1.9-5.7-3.9 5.1-14.2 5.1-14.2 2.3-2.7 12.6-11.3 18.6-19.3 9.1-12.5 12-19.9 14.1-23.2 1.6-2.5 5.3-3.6 9.5-3.6m0-4c-6.1 0-10.7 2-12.9 5.5-.7 1-1.3 2.3-2.2 4-2.1 4.1-5.3 10.2-11.7 19-3.9 5.1-9.9 10.8-13.8 14.5-2.1 1.9-3.6 3.4-4.5 4.4-.5.5-2.2 2.2-3.8 4.3-3 3.9-4.3 7.2-4 10.2.2 2.3 1.4 4.4 3.4 5.7 2.6 1.7 6.2 2.6 10.8 2.6 7.1 0 15.4-2.1 19.9-4.2.6-.3 1.1-.5 1.7-.8 6.7-3.1 19.2-8.8 32.5-22.4 9.5-9.8 10.9-18.2 10.4-23.5-.5-5.6-3.4-10.7-7.9-13.9-4.6-3.3-11.6-5.4-17.9-5.4z" fill="#0d1114"/>
</svg>
